<?xml version="1.0" encoding="UTF-8"?>
<svg id="Layer_1" xmlns="http://www.w3.org/2000/svg" viewBox="0 0 2000 1000">
  <defs>
    <style>
      .cls-1 {
        fill: #fff;
      }
    </style>
  </defs>
  <rect y="-20.7" width="2085.96" height="1112.17"/>
  <path class="cls-1" d="M1936.54,360.98c-1.79-7.28-1.47-15.36-2.45-23.01-.64-4.92-1.63-9.84-2.99-14.51-1.13-3.85-3.19-7.25-4.58-11-4.55-12.23-9.4-15.59-19.7-11.53-7.32,2.89-13.65,1.47-20.26-2.7-3.55-2.24-7.7-3.94-11.62-4.09-12.31-.49-24.66-.56-36.98,0-27.09,1.22-54.37-.63-81.05,7.76-1.96.62-4.12.17-6.18.25-10.7.42-21.88-1.5-31.97,1.87-13.89,4.63-27.68,4.73-41.68,5.61-8.64.54-15.49-.55-22.21-9.26-8.37-10.87-16.51-7.41-20.8,6.62-4.33,14.18-6.26,16.35-18.15,15.57-18.97-1.24-37.4,8.91-56.5,3.99-.76-.2-1.62.31-2.44.44-13.88,2.32-27.73,4.83-41.63,6.89-16.32,2.43-32.68,4.48-49.02,6.69-15.93,2.15-31.85,4.57-47.81,6.36-10.61,1.19-21.33.85-31.9,2.35-10.59,1.5-21,4.89-31.58,6.66-18.74,3.13-37.56,5.46-56.31,8.51-21.65,3.52-43.27,7.33-64.88,11.27-10.18,1.86-20.25,4.62-30.43,6.44-23.26,4.15-46.65,7.27-69.81,12.15-18.55,3.91-37.58,5.53-55.19,15.19-1.08.59-2.46.27-3.68.49-3.11.55-6.42,1.85-9.73,3.74-3.31-1.89-6.62-3.19-9.73-3.74-1.23-.22-2.6.1-3.68-.49-17.61-9.67-36.64-11.28-55.19-15.19-23.16-4.88-46.55-8-69.81-12.15-10.18-1.82-20.25-4.58-30.43-6.44-21.61-3.94-43.23-7.75-64.88-11.27-18.75-3.05-37.57-5.38-56.31-8.51-10.57-1.77-20.99-5.15-31.58-6.66-10.57-1.5-21.3-1.16-31.9-2.35-15.96-1.79-31.87-4.2-47.81-6.36-16.34-2.21-32.7-4.26-49.02-6.69-13.9-2.07-27.76-4.58-41.63-6.89-.82-.14-1.68-.64-2.44-.44-19.1,4.92-37.53-5.24-56.5-3.99-11.89.78-13.82-1.4-18.15-15.57-4.28-14.02-12.42-17.48-20.8-6.62-6.72,8.72-13.57,9.81-22.21,9.26-13.99-.88-27.79-.97-41.68-5.61-10.09-3.37-21.27-1.44-31.97-1.87-2.07-.08-4.23.37-6.18-.25-26.68-8.39-53.96-6.54-81.05-7.76-12.31-.55-24.66-.48-36.98,0-3.92.15-8.06,1.85-11.62,4.09-6.62,4.17-12.95,5.59-20.26,2.7-10.29-4.06-15.14-.7-19.7,11.53-1.4,3.75-3.46,7.15-4.58,11-1.37,4.67-2.36,9.59-2.99,14.51-.99,7.65-.67,15.73-2.45,23.01-3.69,15.05,1.94,36.87,13.56,42.72,8.22,4.14,17.55,6.05,26.44,6.42,16.8.71,33.66-.41,50.49-.76.41,0,.86-.1,1.24.04,12.66,4.9,25.01,5.42,36.97-3.37,1.47-1.08,4.05-.36,5.96.28,14.88,4.98,29.29,4.98,42.94-5.54,1.71-1.31,4.24-2.89,5.81-2.2,19.12,8.45,40.11-.22,59.01,10.91,7.86,4.63,11,9.02,10.07,20.18-.39,4.67-1.69,9.3-1.66,13.94.09,12.86-.12,25.16,3.45,38.28,6.69,24.61,10.16,50.65,14.82,76.15.64,3.5.28,7.28.58,10.9.52,6.21-.07,13.23,2.05,18.45,5.28,13.04,6.06,24.87,1.56,38.99-2.07,6.5,1.68,16.06,2.92,24.2,2.19,14.4,1.69,15.34-9.49,16.12-25.11,1.73-50.21,3.55-75.33,5.12-23.41,1.46-46.83,2.69-70.26,3.87-3.69.19-7.41-.33-11.1-.72-14.01-1.46-15.11-2.84-15.87-20.4-.2-4.64-.03-9.31-.03-15.49-7.75-1.59-14.66-3.01-21.56-4.43-.06-1.05-.12-2.1-.19-3.15,4.3-2.99,8.6-5.97,14.5-10.07-3.49-2.29-5.48-4.77-7.35-4.64-16.38,1.11-29.5,8.16-38.87,27.44-12.4,25.53-15.11,53.67-18.73,82.08-1.58,12.4-1.12,23.76,1.72,35.54,1.51,6.28,3.79,10.29,9.2,10.6,3.28.18,6.55.56,9.82.73,11.48.6,23,.63,34.44,1.86,13.13,1.41,25.93,3.84,39.29-.38,12.22-3.86,25.07-6.63,37.78-.82,1.68.77,4.77.39,5.82-1.07,9.5-13.2,22.57-7.43,33.77-9.57,19.05-3.64,38.57-3.28,57.88-4.81,18.08-1.43,36.14-3.2,54.21-4.68,3.28-.27,6.66-.34,9.89.31,4.8.96,9.11,2.44,14.31-.12,3.6-1.77,8.6,1.05,13.81,1.97,5.99-9.59,15.55-7.75,24.41-9.01,36.42-5.17,72.84-10.29,109.24-15.58,9.06-1.32,18.28-7.73,26.47,3.9,1.32,1.87,6.14-.25,9.89-.57-.32-3.39-.54-5.72-.76-8.07.68-.52,1.32-1.32,2.06-1.51,13.74-3.48,27.54-6.65,41.24-10.39,9.66-2.64,19.54-4.89,28.65-9.48,6.82-3.44,13.23-4.03,20.32-4.18,6.66-.14,13.27-3.46,20.89-5.67.98,1.73,2.55,4.48,4.34,7.65,3.22-1.02,6.35-2.01,8.72-2.76.99-4.6,1.69-11.26,2.56-11.3,4.8-.2,9.63,1.21,14.46,2.07,7.34-.15,15.21-1.21,20.08-10.85,1.11-2.2,5.17-3.5,7.53-2.93,14.58,3.54,27.46-4.07,41.02-8.25,5.17-1.59,5.59-12.47,13.62-8.14,3.85,2.08,10.11-2.69,15.2-4.71,5.51-2.19,10.9-4.85,16.38-7.21,33.26-14.33,65.51-31.29,96.37-52.98,1.74-1.22,3.37-2.54,4.95-3.89,1.58,1.35,3.21,2.67,4.95,3.89,30.86,21.69,63.11,38.65,96.37,52.98,5.47,2.36,10.87,5.02,16.38,7.21,5.08,2.02,11.34,6.79,15.2,4.71,8.03-4.33,8.45,6.54,13.62,8.14,13.56,4.18,26.43,11.78,41.02,8.25,2.36-.57,6.42.73,7.53,2.93,4.87,9.65,12.74,10.7,20.08,10.85,4.82-.86,9.66-2.28,14.46-2.07.87.04,1.57,6.7,2.56,11.3,2.37.75,5.5,1.74,8.72,2.76,1.8-3.17,3.36-5.92,4.34-7.65,7.62,2.21,14.23,5.53,20.89,5.67,7.09.15,13.49.75,20.32,4.18,9.11,4.58,18.99,6.84,28.65,9.48,13.7,3.74,27.49,6.91,41.24,10.39.74.19,1.38,1,2.06,1.51-.22,2.36-.44,4.69-.76,8.07,3.76.32,8.58,2.44,9.89.57,8.19-11.63,17.41-5.21,26.47-3.9,36.41,5.29,72.83,10.4,109.24,15.58,8.86,1.26,18.42-.57,24.41,9.01,5.21-.92,10.21-3.74,13.81-1.97,5.2,2.56,9.51,1.08,14.31.12,3.23-.65,6.6-.58,9.89-.31,18.07,1.48,36.14,3.25,54.21,4.68,19.31,1.53,38.82,1.17,57.88,4.81,11.19,2.14,24.27-3.63,33.77,9.57,1.05,1.46,4.14,1.83,5.82,1.07,12.71-5.82,25.56-3.04,37.78.82,13.36,4.22,26.16,1.79,39.29.38,11.44-1.23,22.96-1.26,34.44-1.86,3.28-.17,6.55-.55,9.82-.73,5.41-.3,7.68-4.31,9.2-10.6,2.84-11.78,3.29-23.14,1.72-35.54-3.61-28.42-6.32-56.55-18.73-82.08-9.37-19.29-22.49-26.34-38.87-27.44-1.88-.13-3.86,2.35-7.35,4.64,5.91,4.1,10.2,7.09,14.5,10.07-.06,1.05-.12,2.1-.19,3.15-6.9,1.42-13.81,2.84-21.56,4.43,0,6.18.17,10.85-.03,15.49-.76,17.56-1.86,18.94-15.87,20.4-3.69.39-7.41.9-11.1.72-23.42-1.18-46.84-2.41-70.26-3.87-25.11-1.56-50.22-3.39-75.33-5.12-11.17-.77-11.68-1.72-9.49-16.12,1.24-8.14,5-17.7,2.92-24.2-4.51-14.12-3.72-25.95,1.56-38.99,2.11-5.22,1.53-12.23,2.05-18.45.3-3.62-.06-7.4.58-10.9,4.66-25.49,8.13-51.53,14.82-76.15,3.57-13.12,3.37-25.43,3.45-38.28.03-4.64-1.27-9.26-1.66-13.94-.92-11.16,2.21-15.55,10.07-20.18,18.9-11.13,39.89-2.46,59.01-10.91,1.56-.69,4.1.88,5.81,2.2,13.66,10.52,28.06,10.51,42.94,5.54,1.91-.64,4.49-1.36,5.96-.28,11.96,8.79,24.31,8.27,36.97,3.37.38-.15.82-.05,1.24-.04,16.83.36,33.68,1.47,50.49.76,8.9-.37,18.22-2.28,26.44-6.42,11.62-5.85,17.25-27.67,13.56-42.72ZM1006.17,526c-24.37,11.3-48.85,22.21-73.39,32.91-17.55,7.66-35.08,15.54-52.93,21.95-26.12,9.38-51.45,22.05-78.66,27-20.6,3.75-40.7,11.81-61.15,17.15-18.67,4.88-37.51,8.66-56.27,12.97-6.81,1.56-13.9,5.6-20.32,4.26-8.02-1.68-14.52,1.58-21.54,4.14-2.73,1-5.47,2.32-8.27,2.6-6.49.64-13.04.41-19.52,1.12-12.24,1.34-24.66,5.58-36.61,3.97-12.1-1.63-23.19,3.24-34.9,3.51-13.71.33-14.95.88-15.76-16.47-.63-13.56-.27-27.31-1.89-40.67-2.8-23.18-10.76-44.68-12.22-68.72-1.53-25.24-11.71-48.96-10.46-75.24.16-3.31-1.69-6.96-3.05-10.15-3.47-8.15-4.28-16.76.91-23.41,4.77-6.1,11.24-7.3,18.4-5.1,10.57,3.26,21.44,5,32.17,7.45,7.71,1.76,15.39,3.68,23.11,5.37,2.8.61,6.02,2.04,8.44.95,16.14-7.3,31.52,2.5,47.28,3.11,9.72.37,19.31,5.46,29.06,6.2,15.53,1.19,30.59,11.78,46.64,3.9,1.54-.76,4.2.51,5.8,1.86,6.05,5.09,12.38,4.39,19.1,3.04,5.58-1.12,11.79-2.79,16.92-.82,10.47,4.02,20.12,13.05,31.68,4.84.29-.21.84-.03,1.21.15,11.58,5.5,23.63,6.63,35.87,8.24,18.28,2.41,36.25,8.5,54.38,12.82,2.76.66,5.69.09,8.53.41,6.06.69,12.65-.08,18.04,2.77,9,4.75,18.11,6.27,27.6,7.14,8.97.82,18,1.91,26.78,4.24,9.17,2.43,17.99,6.94,27.11,9.74,13.51,4.15,27.84,4.27,43.31,15.19-6.52,4.97-10.66,9.34-15.42,11.55ZM1630.78,446.34c-1.36,3.19-3.2,6.85-3.05,10.15,1.25,26.28-8.93,50-10.46,75.24-1.46,24.04-9.41,45.54-12.22,68.72-1.62,13.36-1.26,27.11-1.89,40.67-.8,17.35-2.05,16.8-15.76,16.47-11.7-.28-22.79-5.14-34.9-3.51-11.96,1.61-24.37-2.63-36.61-3.97-6.48-.71-13.03-.48-19.52-1.12-2.79-.28-5.53-1.6-8.27-2.6-7.02-2.56-13.51-5.82-21.54-4.14-6.41,1.34-13.51-2.7-20.32-4.26-18.76-4.31-37.6-8.09-56.27-12.97-20.45-5.34-40.55-13.41-61.15-17.15-27.21-4.95-52.54-17.62-78.66-27-17.84-6.41-35.37-14.29-52.93-21.95-24.54-10.7-49.02-21.61-73.39-32.91-4.76-2.21-8.9-6.58-15.42-11.55,15.47-10.92,29.81-11.05,43.31-15.19,9.12-2.8,17.94-7.3,27.11-9.74,8.78-2.33,17.81-3.42,26.78-4.24,9.49-.87,18.6-2.4,27.6-7.14,5.39-2.84,11.98-2.08,18.04-2.77,2.83-.32,5.76.25,8.53-.41,18.13-4.33,36.1-10.41,54.38-12.82,12.24-1.61,24.29-2.74,35.87-8.24.38-.18.92-.36,1.21-.15,11.56,8.21,21.21-.82,31.68-4.84,5.13-1.97,11.34-.3,16.92.82,6.71,1.34,13.04,2.05,19.1-3.04,1.61-1.35,4.26-2.62,5.8-1.86,16.05,7.88,31.11-2.71,46.64-3.9,9.75-.75,19.33-5.83,29.06-6.2,15.77-.61,31.14-10.4,47.28-3.11,2.42,1.1,5.64-.33,8.44-.95,7.72-1.69,15.4-3.62,23.11-5.37,10.73-2.45,21.59-4.19,32.17-7.45,7.16-2.2,13.63-1.01,18.4,5.1,5.2,6.64,4.38,15.26.91,23.41Z"/>
</svg>